HIERARCHY
ROOT Hips
{
  OFFSET 5.84602e-005 68.8428 3.50346
  CHANNELS 6 Xposition Yposition Zposition Zrotation Xrotation Yrotation
  JOINT Spine
  {
    OFFSET 0 8.597 -4.6522
    CHANNELS 3 Zrotation Xrotation Yrotation
    JOINT Spine1
    {
      OFFSET 0 7.8454 0.4098
      CHANNELS 3 Zrotation Xrotation Yrotation
      JOINT Spine2
      {
        OFFSET 0 9.7078 -2.1609
        CHANNELS 3 Zrotation Xrotation Yrotation
        JOINT Neck
        {
          OFFSET 0 21.8761 -0.4549
          CHANNELS 3 Zrotation Xrotation Yrotation
          JOINT Head
          {
            OFFSET 0 12.3537 3.3602
            CHANNELS 3 Zrotation Xrotation Yrotation
            End Site
            {
              OFFSET 0.0001 18.9506 0.5657
            }
          }
        }
        JOINT LeftShoulder
        {
          OFFSET 2.2086 21.1115 7.2329
          CHANNELS 3 Zrotation Xrotation Yrotation
          JOINT LeftArm
          {
            OFFSET 13.1193 3.0282 -4.8998
            CHANNELS 3 Zrotation Xrotation Yrotation
            JOINT LeftForeArm
            {
              OFFSET 27.4081 -0.0973053 -0.2375
              CHANNELS 3 Zrotation Xrotation Yrotation
              JOINT LeftHand
              {
                OFFSET 22.8641 0.0662994 -0.1369
                CHANNELS 3 Zrotation Xrotation Yrotation
                JOINT LeftHandIndex1
                {
                  OFFSET 8.8614 0.775009 2.4612
                  CHANNELS 3 Zrotation Xrotation Yrotation
                  JOINT LeftHandIndex2
                  {
                    OFFSET 3.3146 -0.808304 0.5841
                    CHANNELS 3 Zrotation Xrotation Yrotation
                    JOINT LeftHandIndex3
                    {
                      OFFSET 2.2628 -0.552002 0.3989
                      CHANNELS 3 Zrotation Xrotation Yrotation
                      End Site
                      {
                        OFFSET 1.6102 -0.4807 0.2612
                      }
                    }
                  }
                }
                JOINT LeftHandMiddle1
                {
                  OFFSET 8.9937 0.895004 0.2143
                  CHANNELS 3 Zrotation Xrotation Yrotation
                  JOINT LeftHandMiddle2
                  {
                    OFFSET 4.0984 0.0113983 -0.0242
                    CHANNELS 3 Zrotation Xrotation Yrotation
                    JOINT LeftHandMiddle3
                    {
                      OFFSET 2.2716 0.00689697 -0.0138001
                      CHANNELS 3 Zrotation Xrotation Yrotation
                      End Site
                      {
                        OFFSET 2.0404 -0.1441 0.0027
                      }
                    }
                  }
                }
                JOINT LeftHandRing1
                {
                  OFFSET 8.5234 0.597198 -2.0164
                  CHANNELS 3 Zrotation Xrotation Yrotation
                  JOINT LeftHandRing2
                  {
                    OFFSET 3.7188 -0.188293 -0.2328
                    CHANNELS 3 Zrotation Xrotation Yrotation
                    JOINT LeftHandRing3
                    {
                      OFFSET 2.1191 -0.106598 -0.1332
                      CHANNELS 3 Zrotation Xrotation Yrotation
                      End Site
                      {
                        OFFSET 1.8737 -0.2304 -0.0886
                      }
                    }
                  }
                }
                JOINT LeftHandPinky1
                {
                  OFFSET 7.9094 -0.601089 -3.4825
                  CHANNELS 3 Zrotation Xrotation Yrotation
                  JOINT LeftHandPinky2
                  {
                    OFFSET 2.2874 -0.477005 -0.6314
                    CHANNELS 3 Zrotation Xrotation Yrotation
                    JOINT LeftHandPinky3
                    {
                      OFFSET 1.6774 -0.349396 -0.4633
                      CHANNELS 3 Zrotation Xrotation Yrotation
                      End Site
                      {
                        OFFSET 1.4888 -0.4091 -0.3416
                      }
                    }
                  }
                }
                JOINT LeftHandThumb1
                {
                  OFFSET 1.833 -1.3875 1.3896
                  CHANNELS 3 Zrotation Xrotation Yrotation
                  JOINT LeftHandThumb2
                  {
                    OFFSET 3.4129 -1.121 2.5732
                    CHANNELS 3 Zrotation Xrotation Yrotation
                    JOINT LeftHandThumb3
                    {
                      OFFSET 2.2474 -0.804199 1.6192
                      CHANNELS 3 Zrotation Xrotation Yrotation
                      End Site
                      {
                        OFFSET 1.6527 -0.5689 1.1317
                      }
                    }
                  }
                }
              }
            }
          }
        }
        JOINT RightShoulder
        {
          OFFSET -2.2086 21.1115 7.2329
          CHANNELS 3 Zrotation Xrotation Yrotation
          JOINT RightArm
          {
            OFFSET -13.1216 3.0287 -4.9007
            CHANNELS 3 Zrotation Xrotation Yrotation
            JOINT RightForeArm
            {
              OFFSET -27.4081 -0.0973053 -0.2375
              CHANNELS 3 Zrotation Xrotation Yrotation
              JOINT RightHand
              {
                OFFSET -22.8641 0.0664063 -0.1369
                CHANNELS 3 Zrotation Xrotation Yrotation
                JOINT RightHandIndex1
                {
                  OFFSET -8.8614 0.774994 2.4612
                  CHANNELS 3 Zrotation Xrotation Yrotation
                  JOINT RightHandIndex2
                  {
                    OFFSET -3.3146 -0.808304 0.5841
                    CHANNELS 3 Zrotation Xrotation Yrotation
                    JOINT RightHandIndex3
                    {
                      OFFSET -2.2628 -0.552002 0.3989
                      CHANNELS 3 Zrotation Xrotation Yrotation
                      End Site
                      {
                        OFFSET -1.6102 -0.4807 0.2612
                      }
                    }
                  }
                }
                JOINT RightHandMiddle1
                {
                  OFFSET -8.9937 0.894989 0.2143
                  CHANNELS 3 Zrotation Xrotation Yrotation
                  JOINT RightHandMiddle2
                  {
                    OFFSET -4.0984 0.0113983 -0.0242
                    CHANNELS 3 Zrotation Xrotation Yrotation
                    JOINT RightHandMiddle3
                    {
                      OFFSET -2.2716 0.00691223 -0.0138001
                      CHANNELS 3 Zrotation Xrotation Yrotation
                      End Site
                      {
                        OFFSET -2.0404 -0.1441 0.0027
                      }
                    }
                  }
                }
                JOINT RightHandRing1
                {
                  OFFSET -8.5234 0.597198 -2.0164
                  CHANNELS 3 Zrotation Xrotation Yrotation
                  JOINT RightHandRing2
                  {
                    OFFSET -3.7188 -0.188309 -0.2328
                    CHANNELS 3 Zrotation Xrotation Yrotation
                    JOINT RightHandRing3
                    {
                      OFFSET -2.1191 -0.106598 -0.1332
                      CHANNELS 3 Zrotation Xrotation Yrotation
                      End Site
                      {
                        OFFSET -1.8737 -0.2304 -0.0886
                      }
                    }
                  }
                }
                JOINT RightHandPinky1
                {
                  OFFSET -7.9094 -0.601105 -3.4825
                  CHANNELS 3 Zrotation Xrotation Yrotation
                  JOINT RightHandPinky2
                  {
                    OFFSET -2.2874 -0.477005 -0.6314
                    CHANNELS 3 Zrotation Xrotation Yrotation
                    JOINT RightHandPinky3
                    {
                      OFFSET -1.6774 -0.349396 -0.4633
                      CHANNELS 3 Zrotation Xrotation Yrotation
                      End Site
                      {
                        OFFSET -1.4888 -0.4091 -0.3416
                      }
                    }
                  }
                }
                JOINT RightHandThumb1
                {
                  OFFSET -1.833 -1.38751 1.3896
                  CHANNELS 3 Zrotation Xrotation Yrotation
                  JOINT RightHandThumb2
                  {
                    OFFSET -3.41299 -1.12099 2.5732
                    CHANNELS 3 Zrotation Xrotation Yrotation
                    JOINT RightHandThumb3
                    {
                      OFFSET -2.24741 -0.804108 1.6192
                      CHANNELS 3 Zrotation Xrotation Yrotation
                      End Site
                      {
                        OFFSET -1.6527 -0.5689 1.1317
                      }
                    }
                  }
                }
              }
            }
          }
        }
      }
    }
  }
  JOINT RightUpLeg
  {
    OFFSET -9.1966 3.8861 -0.7581
    CHANNELS 3 Zrotation Xrotation Yrotation
    JOINT RightLeg
    {
      OFFSET -0.7359 -41.0265 0
      CHANNELS 3 Zrotation Xrotation Yrotation
      JOINT RightFoot
      {
        OFFSET 0 -40.2855 0
        CHANNELS 3 Zrotation Xrotation Yrotation
        JOINT RightToeBase
        {
          OFFSET 0 -5.6122 11.7359
          CHANNELS 3 Zrotation Xrotation Yrotation
          End Site
          {
            OFFSET 0 0 7.8731
          }
        }
      }
    }
  }
  JOINT LeftUpLeg
  {
    OFFSET 9.1965 3.8864 -0.7581
    CHANNELS 3 Zrotation Xrotation Yrotation
    JOINT LeftLeg
    {
      OFFSET 0.7359 -41.0268 0
      CHANNELS 3 Zrotation Xrotation Yrotation
      JOINT LeftFoot
      {
        OFFSET 0 -40.2855 0
        CHANNELS 3 Zrotation Xrotation Yrotation
        JOINT LeftToeBase
        {
          OFFSET 0 -5.6122 11.7359
          CHANNELS 3 Zrotation Xrotation Yrotation
          End Site
          {
            OFFSET 0 0 7.8731
          }
        }
      }
    }
  }
}
MOTION
Frames:	5
Frame Time:	0.0333333
5.84602e-005 68.8428 3.50346 0 0 -0 0 0 -0 0 0 -0 0 0 -0 0 0 -0 0 0 -0 0 0 -0 0 0 -0 0 0 -0 0 0 -0 0 0 -0 0 0 -0 0 0 -0 0 0 -0 -0.0146107 -8.87603e-005 -2.63497e-007 2.99804e-018 -2.42657e-020 -1.42182e-022 0 0 -0 -0.0187562 -0.001176 5.858e-005 5.06224e-018 3.88251e-019 1.21329e-020 0 0 -0 -0.012269 -0.00324817 0.000675346 -1.74678e-018 3.88251e-019 -0 0 0 -0 0 0 -0 0 0 -0 0 0 -0 0 0 -0 0 0 -0 0 0 -0 0 0 -0 0 0 -0 0 0 -0 0 0 -0 0.0149955 -9.10982e-005 2.64101e-007 -9.69331e-018 1.21329e-020 -4.7394e-023 0 0 -0 0.0189956 -0.00119102 -5.96516e-005 -5.41541e-019 0 2.42657e-020 0 0 -0 0.0122698 -0.00324857 -0.000673756 -2.00796e-019 0 -1.94126e-019 0 0 -0 0 0 -0 0 0 -0 3.39842 1.33031 -0.0637918 -5.65207e-008 0.834868 -0.000436188 -3.39935 -2.16518 -0.0642563 -8.89002e-024 -1.18485e-023 -1.48106e-024 -3.39844 1.35642 0.0640283 -3.18788e-007 0.782166 -0.000588827 3.39931 -2.13858 0.0634662 1.1399e-023 0 -0 
7.39697e-005 3.57171 8.60568 -0 -82.0004 -0 -0.0186314 -3.06723 -0.153011 -0.0455778 -6.13439 -0.307686 -0.0455777 -6.13438 -0.307686 -7.3303 30.1261 -1.30709 16.1593 -8.01046 6.31185 -15.833 14.1706 3.825 -68.6813 -7.35151 -52.8354 -15.397 34.8763 0.357566 -42.3439 -22.8118 8.38363 1.73047e-008 -3.37356e-006 1.73021e-007 1.33558e-006 2.70577e-006 -8.50312e-007 1.73046e-008 -3.37356e-006 1.73021e-007 1.73047e-008 -3.37356e-006 1.73021e-007 -0.0146455 -8.6598e-005 -2.88224e-006 1.75323e-008 -3.37358e-006 1.7259e-007 1.73047e-008 -3.37356e-006 1.73021e-007 -0.0187825 -0.00117667 5.73447e-005 1.75965e-008 -3.37357e-006 1.72467e-007 1.73047e-008 -3.37356e-006 1.73021e-007 -0.0122858 -0.00325015 0.000677258 1.74804e-008 -3.37353e-006 1.72648e-007 1.73047e-008 -3.37356e-006 1.73021e-007 1.33558e-006 2.70577e-006 -8.50312e-007 1.73046e-008 -3.37356e-006 1.73021e-007 15.8298 14.1703 -3.82809 68.6775 -7.35551 52.832 15.3927 34.8764 -0.357766 42.3393 -22.8128 -8.38791 6.36111e-015 6.36111e-015 6.36111e-015 -1.41245e-030 1.27222e-014 6.36111e-015 7.61646e-007 5.5568e-007 -5.04297e-007 6.36111e-015 6.36111e-015 6.36111e-015 0.0150151 -8.75446e-005 -2.23308e-006 -0 -7.95139e-015 -0 6.36111e-015 6.36111e-015 6.36111e-015 0.0190016 -0.00119401 -6.02261e-005 9.54166e-015 -1.59028e-015 9.54166e-015 6.36111e-015 6.36111e-015 6.36111e-015 0.0122741 -0.00324838 -0.000677788 -0 -4.77083e-015 -0 6.36111e-015 6.36111e-015 6.36111e-015 -1.41245e-030 1.27222e-014 6.36111e-015 7.61646e-007 5.5568e-007 -5.04297e-007 -17.0373 -15.0362 -50.8061 -1.96827 48.7663 -0.101729 -4.21066 14.2077 0.926964 -4.77083e-015 0 -1.59028e-015 17.0337 -15.0381 50.8018 1.96528 48.767 0.0991831 4.20793 14.2074 -0.930148 2.94929e-006 -7.61023e-007 -1.05711e-006 
-0.000104503 3.71043 8.60623 -0 -82.0004 -0 -0.0180213 -3.18891 -0.153064 -0.0446943 -6.37775 -0.307851 -0.0446944 -6.37776 -0.307851 -7.33035 30.126 -1.30704 16.0239 -8.35807 6.2855 -15.6437 14.818 4.36354 -68.9049 -7.06786 -52.9339 -15.5881 34.8666 0.356913 -42.3439 -22.8118 8.38364 1.35303e-006 -6.67101e-007 -6.78585e-007 7.15378e-007 -2.89917e-007 -2.65624e-007 1.67186e-006 -8.55694e-007 -8.85066e-007 1.35303e-006 -6.67101e-007 -6.78585e-007 -0.0146162 -9.22359e-005 -6.34369e-006 2.70617e-006 -1.33403e-006 -1.35734e-006 1.35303e-006 -6.67101e-007 -6.78585e-007 -0.0187483 -0.00117774 5.81091e-005 1.67052e-006 -8.55633e-007 -8.85219e-007 1.35303e-006 -6.67101e-007 -6.78585e-007 -0.0122557 -0.0032443 0.000675159 2.7061e-006 -1.33405e-006 -1.35739e-006 1.35303e-006 -6.67101e-007 -6.78585e-007 7.15378e-007 -2.89917e-007 -2.65624e-007 1.67186e-006 -8.55694e-007 -8.85066e-007 15.6258 14.8073 -4.38594 68.9054 -7.06459 52.9315 15.5894 34.8648 -0.357069 42.3393 -22.8128 -8.38792 -9.54166e-015 -3.18055e-015 -6.36111e-015 -6.36111e-015 -3.18055e-015 -3.18055e-015 -6.36111e-015 0 -3.18055e-015 -9.54166e-015 -3.18055e-015 -6.36111e-015 0.0149651 -8.91209e-005 -2.23031e-006 6.36111e-015 -1.59028e-014 -3.18055e-015 -9.54166e-015 -3.18055e-015 -6.36111e-015 0.0190051 -0.00118981 -5.79138e-005 -6.36111e-015 -9.54166e-015 -6.36111e-015 -9.54166e-015 -3.18055e-015 -6.36111e-015 0.0122884 -0.00325328 -0.000683759 9.76326e-007 3.78297e-007 -4.34774e-007 -9.54166e-015 -3.18055e-015 -6.36111e-015 -6.36111e-015 -3.18055e-015 -3.18055e-015 -6.36111e-015 0 -3.18055e-015 -16.7526 -15.0259 -50.0752 -1.9681 48.7631 -0.0889983 -3.67114 14.2149 0.290013 7.95139e-016 3.18055e-015 -3.18055e-015 16.8489 -14.9363 50.3347 1.96495 48.7605 0.0906954 3.86279 14.1936 -0.561985 -8.36203e-006 2.03483e-006 -6.27749e-006 
-0.000276174 3.84916 8.6068 -0 -82.0004 -0 -0.0174095 -3.31076 -0.153111 -0.0438084 -6.62148 -0.308006 -0.0438084 -6.62146 -0.308006 -7.33027 30.1256 -1.30713 15.8883 -8.70568 6.25829 -15.46 15.4677 4.90201 -69.1279 -6.78378 -53.0312 -15.7791 34.8567 0.356258 -42.3439 -22.8118 8.38363 -1.35319e-006 6.66336e-007 6.79911e-007 9.54166e-015 6.36111e-015 -0 -1.35319e-006 6.66336e-007 6.79911e-007 -1.35319e-006 6.66336e-007 6.79911e-007 -0.0146074 -8.97786e-005 -2.40361e-006 -2.39878e-006 1.14102e-006 1.15429e-006 -1.35319e-006 6.66336e-007 6.79911e-007 -0.0187637 -0.00117578 6.11021e-005 -2.39911e-006 1.14089e-006 1.15436e-006 -1.35319e-006 6.66336e-007 6.79911e-007 -0.0122799 -0.00324932 0.00067143 -1.35321e-006 6.66259e-007 6.80023e-007 -1.35319e-006 6.66336e-007 6.79911e-007 9.54166e-015 6.36111e-015 -0 -1.35319e-006 6.66336e-007 6.79911e-007 15.4274 15.4468 -4.94363 69.1327 -6.77323 53.0297 15.7861 34.8531 -0.356399 42.3393 -22.8128 -8.38791 3.18055e-015 6.36111e-015 -0 3.18055e-015 7.95139e-015 -6.36111e-015 3.18055e-015 1.59028e-015 -3.18055e-015 3.18055e-015 6.36111e-015 -0 0.0149757 -9.18457e-005 2.77352e-006 6.36111e-015 -7.95139e-015 -6.36111e-015 3.18055e-015 6.36111e-015 -0 0.0189703 -0.00118582 -5.63031e-005 -3.18055e-015 -7.95139e-015 -0 3.18055e-015 6.36111e-015 -0 0.0122592 -0.00324193 -0.00067594 -8.82781e-032 1.59028e-015 3.18055e-015 3.18055e-015 6.36111e-015 -0 3.18055e-015 7.95139e-015 -6.36111e-015 3.18055e-015 1.59028e-015 -3.18055e-015 -16.4678 -15.0121 -49.3439 -1.96793 48.7599 -0.0760586 -3.13121 14.2161 -0.347531 -8.51535e-006 2.30422e-006 1.13582e-006 16.6651 -14.8331 49.868 1.96462 48.7541 0.0821426 3.51777 14.1776 -0.193781 1.57267e-006 -1.69046e-006 4.42811e-006 
-0.000441026 3.98791 8.60738 -0 -82.0004 -0 -0.0167957 -3.43281 -0.153155 -0.0429192 -6.86554 -0.308153 -0.0429191 -6.86557 -0.308153 -7.33029 30.1258 -1.3071 15.7523 -9.05333 6.23022 -15.282 16.1195 5.44053 -69.3504 -6.49929 -53.1275 -15.9702 34.8466 0.355614 -42.3439 -22.8117 8.38364 1.35336e-006 -6.65493e-007 -6.81265e-007 3.18055e-015 -1.59028e-015 -0 2.70671e-006 -1.33099e-006 -1.36253e-006 1.35336e-006 -6.65493e-007 -6.81265e-007 -0.014625 -8.91768e-005 -1.33634e-006 2.70682e-006 -1.33081e-006 -1.3627e-006 1.35336e-006 -6.65493e-007 -6.81265e-007 -0.0187375 -0.00117553 5.65981e-005 3.30129e-006 -1.72009e-006 -1.77331e-006 1.35336e-006 -6.65493e-007 -6.81265e-007 -0.0122678 -0.00324335 0.000669168 3.30216e-006 -1.7205e-006 -1.77319e-006 1.35336e-006 -6.65493e-007 -6.81265e-007 3.18055e-015 -1.59028e-015 -0 2.70671e-006 -1.33099e-006 -1.36253e-006 15.2347 16.0887 -5.50129 69.3594 -6.48145 53.1267 15.9827 34.8413 -0.355704 42.3393 -22.8128 -8.3879 9.54166e-015 1.27222e-014 -3.18055e-015 -3.18055e-015 -1.59028e-015 -6.36111e-015 6.36111e-015 4.77083e-015 -3.18055e-015 9.54166e-015 1.27222e-014 -3.18055e-015 0.0149749 -9.30422e-005 -3.78086e-006 -6.36111e-015 4.77083e-015 -6.36111e-015 9.54166e-015 1.27222e-014 -3.18055e-015 0.0189684 -0.00118582 -5.22524e-005 -8.82781e-032 1.59028e-015 3.18055e-015 9.54166e-015 1.27222e-014 -3.18055e-015 0.0122854 -0.00324477 -0.000674973 -3.18055e-015 -9.54166e-015 3.18055e-015 9.54166e-015 1.27222e-014 -3.18055e-015 -3.18055e-015 -1.59028e-015 -6.36111e-015 6.36111e-015 4.77083e-015 -3.18055e-015 -16.183 -14.9946 -48.6124 -1.96776 48.7564 -0.063006 -2.59101 14.2115 -0.985565 4.51864e-006 2.45442e-006 3.38556e-006 16.4821 -14.7283 49.4018 1.96425 48.7476 0.0736256 3.17282 14.1594 0.174385 2.95346e-006 -7.60732e-007 -1.04411e-006 
